<svg xmlns="http://www.w3.org/2000/svg" viewBox="0 0 750 650">
  <defs>
    <style>
      .label { font: 500 10px 'SF Mono', 'Menlo', 'Monaco', monospace; fill: #666; text-anchor: middle; letter-spacing: 0.5px; }
      .box-text { font: 600 13px 'SF Mono', 'Menlo', 'Monaco', monospace; fill: #1a1a1a; text-anchor: middle; }
      .box-text-sm { font: 600 11px 'SF Mono', 'Menlo', 'Monaco', monospace; fill: #1a1a1a; text-anchor: middle; }
      .title { font: 700 16px 'SF Mono', 'PingFang SC', sans-serif; fill: #1a1a1a; text-anchor: middle; }
    </style>
    <marker id="arrow" markerWidth="10" markerHeight="7" refX="9" refY="3.5" orient="auto">
      <polygon points="0 0, 10 3.5, 0 7" fill="#666"/>
    </marker>
    <marker id="arrow-back" markerWidth="10" markerHeight="7" refX="1" refY="3.5" orient="auto">
      <polygon points="10 0, 0 3.5, 10 7" fill="#666"/>
    </marker>
  </defs>

  <rect width="750" height="650" fill="#fff"/>
  <text x="375" y="30" class="title">Component Interactions</text>

  <!-- Participants -->
  <rect x="40" y="60" width="100" height="40" fill="#fef3c7" stroke="#1a1a1a" stroke-width="1.5" rx="2"/>
  <text x="90" y="85" class="box-text-sm">Client</text>

  <rect x="170" y="60" width="100" height="40" fill="#dbeafe" stroke="#1a1a1a" stroke-width="1.5" rx="2"/>
  <text x="220" y="85" class="box-text-sm">Gateway</text>

  <rect x="300" y="60" width="120" height="40" fill="#a5f3fc" stroke="#1a1a1a" stroke-width="1.5" rx="2"/>
  <text x="360" y="85" class="box-text-sm">Orchestrator</text>

  <rect x="450" y="60" width="110" height="40" fill="#fde047" stroke="#1a1a1a" stroke-width="1.5" rx="2"/>
  <text x="505" y="85" class="box-text-sm">AgentCore</text>

  <rect x="590" y="60" width="120" height="40" fill="#99f6e4" stroke="#1a1a1a" stroke-width="1.5" rx="2"/>
  <text x="650" y="85" class="box-text-sm">LLMService</text>

  <rect x="180" y="100" width="80" height="40" fill="#f9a8d4" stroke="#1a1a1a" stroke-width="1.5" rx="2"/>
  <text x="220" y="125" class="box-text-sm">Temporal</text>

  <!-- Lifelines -->
  <line x1="90" y1="105" x2="90" y2="620" stroke="#e5e7eb" stroke-width="2" stroke-dasharray="4"/>
  <line x1="220" y1="105" x2="220" y2="620" stroke="#e5e7eb" stroke-width="2" stroke-dasharray="4"/>
  <line x1="360" y1="105" x2="360" y2="620" stroke="#e5e7eb" stroke-width="2" stroke-dasharray="4"/>
  <line x1="505" y1="105" x2="505" y2="620" stroke="#e5e7eb" stroke-width="2" stroke-dasharray="4"/>
  <line x1="650" y1="105" x2="650" y2="620" stroke="#e5e7eb" stroke-width="2" stroke-dasharray="4"/>
  <line x1="220" y1="145" x2="220" y2="620" stroke="#e5e7eb" stroke-width="2" stroke-dasharray="4"/>

  <!-- Messages -->
  <line x1="90" y1="165" x2="215" y2="165" stroke="#666" stroke-width="1.5" marker-end="url(#arrow)"/>
  <text x="152" y="160" class="label">POST /api/v1/tasks</text>

  <line x1="220" y1="195" x2="355" y2="195" stroke="#666" stroke-width="1.5" marker-end="url(#arrow)"/>
  <text x="287" y="190" class="label">SubmitTask (gRPC)</text>

  <line x1="360" y1="225" x2="215" y2="225" stroke="#666" stroke-width="1.5" marker-end="url(#arrow)"/>
  <text x="287" y="220" class="label">StartWorkflow</text>

  <line x1="220" y1="255" x2="355" y2="255" stroke="#666" stroke-width="1.5" marker-end="url(#arrow-back)"/>
  <text x="287" y="250" class="label">WorkflowStarted</text>

  <line x1="360" y1="285" x2="500" y2="285" stroke="#666" stroke-width="1.5" marker-end="url(#arrow)"/>
  <text x="430" y="280" class="label">ExecuteAgent (gRPC)</text>

  <line x1="505" y1="315" x2="645" y2="315" stroke="#666" stroke-width="1.5" marker-end="url(#arrow)"/>
  <text x="575" y="310" class="label">GetCompletion (HTTP)</text>

  <line x1="645" y1="345" x2="510" y2="345" stroke="#666" stroke-width="1.5" marker-end="url(#arrow-back)"/>
  <text x="577" y="340" class="label">LLM Response</text>

  <line x1="500" y1="375" x2="365" y2="375" stroke="#666" stroke-width="1.5" marker-end="url(#arrow-back)"/>
  <text x="432" y="370" class="label">Agent Result</text>

  <line x1="355" y1="405" x2="225" y2="405" stroke="#666" stroke-width="1.5" marker-end="url(#arrow-back)"/>
  <text x="290" y="400" class="label">Task Submitted</text>

  <line x1="215" y1="435" x2="95" y2="435" stroke="#666" stroke-width="1.5" marker-end="url(#arrow-back)"/>
  <text x="155" y="430" class="label">200 OK + task_id</text>
</svg>
