<svg width="121" height="90" viewBox="0 0 121 90" fill="none" xmlns="http://www.w3.org/2000/svg">
<path d="M87.16 89.992C81.8693 89.992 76.92 89.608 72.312 88.84C67.7893 88.072 63.864 86.9627 60.536 85.512V70.28C64.2907 71.816 68.344 73.0533 72.696 73.992C77.048 74.9307 81.3147 75.4 85.496 75.4C91.4693 75.4 95.864 74.8453 98.68 73.736C101.496 72.6267 102.904 70.1093 102.904 66.184C102.904 63.7093 102.307 61.7467 101.112 60.296C99.9173 58.8453 97.8267 57.5653 94.84 56.456C91.9387 55.2613 87.8 53.9387 82.424 52.488C73.8053 50.0987 67.7467 47.112 64.248 43.528C60.7493 39.944 59 34.9947 59 28.68C59 21.0853 61.7733 15.24 67.32 11.144C72.8667 7.048 80.9307 5 91.512 5C96.4613 5 101.069 5.34133 105.336 6.024C109.603 6.70667 113.059 7.51734 115.704 8.456V23.688C108.707 21.0427 101.411 19.72 93.816 19.72C88.44 19.72 84.216 20.3173 81.144 21.512C78.072 22.6213 76.536 25.0107 76.536 28.68C76.536 30.8133 77.0907 32.52 78.2 33.8C79.3093 35.08 81.1867 36.232 83.832 37.256C86.5627 38.28 90.36 39.432 95.224 40.712C101.965 42.504 107.171 44.6373 110.84 47.112C114.509 49.5867 117.027 52.4027 118.392 55.56C119.843 58.7173 120.568 62.2587 120.568 66.184C120.568 73.352 117.837 79.112 112.376 83.464C106.915 87.816 98.5093 89.992 87.16 89.992Z" fill="black"/>
<path d="M6.78407 28.6217C-2.26136 37.6672 -2.26136 52.3328 6.78407 61.3783L15.9321 70.5263C19.9523 74.5465 26.4702 74.5466 30.4905 70.5263C34.5108 66.506 34.5107 59.988 30.4905 55.9678L30.4415 55.9188C24.4113 49.8886 24.4111 40.1116 30.4415 34.0812C36.472 28.0507 46.249 28.0509 52.2792 34.0812L57.7386 39.5406C58.7437 40.5456 60.3732 40.5456 61.3783 39.5406C70.4237 30.4952 70.4237 15.8295 61.3783 6.78407C52.3328 -2.26136 37.6672 -2.26136 28.6217 6.78407L6.78407 28.6217Z" fill="url(#paint0_linear_2_11)"/>
<path d="M34.0812 37.7208C30.0609 41.7411 30.061 48.259 34.0812 52.2792L34.1301 52.3282C40.1604 58.3585 40.1606 68.1355 34.1301 74.1659C32.9568 75.3392 31.6417 76.2842 30.2398 77.001C28.0254 78.1332 26.8631 81.4573 28.6217 83.2159C37.6672 92.2614 52.3328 92.2614 61.3783 83.2159C70.4237 74.1705 70.4237 59.5048 61.3783 50.4594L48.6396 37.7208C44.6194 33.7006 38.1014 33.7005 34.0812 37.7208Z" fill="url(#paint1_linear_2_11)"/>
<defs>
<linearGradient id="paint0_linear_2_11" x1="2.47088" y1="2.19886e-06" x2="30.9551" y2="96.9827" gradientUnits="userSpaceOnUse">
<stop stop-color="#FE6C4B"/>
<stop offset="0.495192" stop-color="#FE2F5C"/>
<stop offset="1" stop-color="#FF1687"/>
</linearGradient>
<linearGradient id="paint1_linear_2_11" x1="2.47088" y1="2.19886e-06" x2="30.9551" y2="96.9827" gradientUnits="userSpaceOnUse">
<stop stop-color="#FE6C4B"/>
<stop offset="0.495192" stop-color="#FE2F5C"/>
<stop offset="1" stop-color="#FF1687"/>
</linearGradient>
</defs>
</svg>
