<svg width="647" height="125" viewBox="0 0 647 125" fill="none" xmlns="http://www.w3.org/2000/svg">
<path d="M9.45517 39.7524C-3.15172 52.3155 -3.15172 72.6845 9.45517 85.2476L22.2051 97.9532C27.8081 103.537 36.8924 103.537 42.4956 97.9532C48.0988 92.3694 48.0987 83.3167 42.4956 77.7331L42.4274 77.6651C34.0228 69.2897 34.0226 55.7105 42.4274 47.3349C50.8321 38.9594 64.4586 38.9596 72.8632 47.3349L80.4722 54.9175C81.8744 56.3148 84.1426 56.3148 85.5448 54.9175C98.1517 42.3544 98.1517 21.9854 85.5448 9.42232C72.9379 -3.14077 52.4979 -3.14077 39.891 9.42232L9.45517 39.7524Z" fill="url(#paint0_linear_1_23)"/>
<path d="M47.5 52.39C41.8968 57.9737 41.8969 67.0264 47.5 72.61L47.5683 72.6781C55.9729 81.0535 55.9731 94.6326 47.5683 103.008C45.9297 104.641 44.0927 105.956 42.1346 106.952C39.0551 108.518 37.4437 113.139 39.891 115.578C52.4979 128.141 72.9379 128.141 85.5448 115.578C98.1517 103.015 98.1517 82.6456 85.5448 70.0825L67.7906 52.39C62.1875 46.8064 53.1032 46.8062 47.5 52.39Z" fill="url(#paint1_linear_1_23)"/>
<path d="M171.896 109.28C166.605 109.28 161.656 108.896 157.048 108.128C152.525 107.36 148.6 106.251 145.272 104.8V89.568C149.027 91.104 153.08 92.3413 157.432 93.28C161.784 94.2187 166.051 94.688 170.232 94.688C176.205 94.688 180.6 94.1333 183.416 93.024C186.232 91.9147 187.64 89.3973 187.64 85.472C187.64 82.9973 187.043 81.0347 185.848 79.584C184.653 78.1333 182.563 76.8533 179.576 75.744C176.675 74.5493 172.536 73.2267 167.16 71.776C158.541 69.3867 152.483 66.4 148.984 62.816C145.485 59.232 143.736 54.2827 143.736 47.968C143.736 40.3733 146.509 34.528 152.056 30.432C157.603 26.336 165.667 24.288 176.248 24.288C181.197 24.288 185.805 24.6293 190.072 25.312C194.339 25.9947 197.795 26.8053 200.44 27.744V42.976C193.443 40.3307 186.147 39.008 178.552 39.008C173.176 39.008 168.952 39.6053 165.88 40.8C162.808 41.9093 161.272 44.2987 161.272 47.968C161.272 50.1013 161.827 51.808 162.936 53.088C164.045 54.368 165.923 55.52 168.568 56.544C171.299 57.568 175.096 58.72 179.96 60C186.701 61.792 191.907 63.9253 195.576 66.4C199.245 68.8747 201.763 71.6907 203.128 74.848C204.579 78.0053 205.304 81.5467 205.304 85.472C205.304 92.64 202.573 98.4 197.112 102.752C191.651 107.104 183.245 109.28 171.896 109.28Z" fill="black"/>
<path d="M217.296 108V21.728H234.576V52.448C237.051 50.5707 240.08 49.0347 243.664 47.84C247.248 46.6453 251.131 46.048 255.312 46.048C263.333 46.048 269.179 47.9253 272.848 51.68C276.517 55.4347 278.352 61.2373 278.352 69.088V108H261.072V69.984C261.072 65.888 260.219 62.9867 258.512 61.28C256.891 59.5733 253.819 58.72 249.296 58.72C246.651 58.72 243.963 59.3173 241.232 60.512C238.587 61.7067 236.368 63.2 234.576 64.992V108H217.296Z" fill="black"/>
<path d="M309.618 109.28C305.778 109.28 302.194 108.597 298.866 107.232C295.623 105.781 292.978 103.691 290.93 100.96C288.967 98.144 287.986 94.6453 287.986 90.464C287.986 84.4907 290.077 79.712 294.258 76.128C298.525 72.544 304.797 70.752 313.074 70.752H330.994V69.088C330.994 65.3333 329.927 62.688 327.794 61.152C325.746 59.616 321.565 58.848 315.25 58.848C308.338 58.848 301.682 59.9147 295.282 62.048V49.888C298.098 48.7787 301.511 47.8827 305.522 47.2C309.618 46.432 314.055 46.048 318.834 46.048C327.965 46.048 335.005 47.9253 339.954 51.68C344.989 55.3493 347.506 61.28 347.506 69.472V108H332.53L331.634 102.496C329.245 104.629 326.301 106.293 322.802 107.488C319.303 108.683 314.909 109.28 309.618 109.28ZM314.354 97.888C318.194 97.888 321.522 97.248 324.338 95.968C327.154 94.688 329.373 93.0667 330.994 91.104V81.504H313.458C306.717 81.504 303.346 84.2773 303.346 89.824C303.346 95.2 307.015 97.888 314.354 97.888Z" fill="black"/>
<path d="M361.421 108V47.328H377.421L378.061 53.088C380.536 51.2107 383.65 49.5893 387.405 48.224C391.245 46.7733 395.256 46.048 399.437 46.048C407.458 46.048 413.304 47.9253 416.973 51.68C420.642 55.4347 422.477 61.2373 422.477 69.088V108H405.197V69.984C405.197 65.888 404.344 62.9867 402.637 61.28C401.016 59.5733 397.944 58.72 393.421 58.72C390.776 58.72 388.088 59.3173 385.357 60.512C382.712 61.7067 380.493 63.2 378.701 64.992V108H361.421Z" fill="black"/>
<path d="M436.546 108V47.328H452.546L453.186 53.088C455.661 51.2107 458.775 49.5893 462.53 48.224C466.37 46.7733 470.381 46.048 474.562 46.048C482.583 46.048 488.429 47.9253 492.098 51.68C495.767 55.4347 497.602 61.2373 497.602 69.088V108H480.322V69.984C480.322 65.888 479.469 62.9867 477.762 61.28C476.141 59.5733 473.069 58.72 468.546 58.72C465.901 58.72 463.213 59.3173 460.482 60.512C457.837 61.7067 455.618 63.2 453.826 64.992V108H436.546Z" fill="black"/>
<path d="M540.007 109.28C528.658 109.28 520.338 106.549 515.047 101.088C509.756 95.5413 507.111 87.7333 507.111 77.664C507.111 67.5947 509.756 59.8293 515.047 54.368C520.423 48.8213 528.743 46.048 540.007 46.048C551.356 46.048 559.676 48.8213 564.967 54.368C570.343 59.8293 573.031 67.5947 573.031 77.664C573.031 87.7333 570.386 95.5413 565.095 101.088C559.804 106.549 551.442 109.28 540.007 109.28ZM540.007 94.56C545.554 94.56 549.522 93.3227 551.911 90.848C554.3 88.288 555.495 83.8933 555.495 77.664C555.495 71.4347 554.3 67.0827 551.911 64.608C549.522 62.048 545.554 60.768 540.007 60.768C534.546 60.768 530.62 62.048 528.231 64.608C525.842 67.0827 524.647 71.4347 524.647 77.664C524.647 83.8933 525.842 88.288 528.231 90.848C530.62 93.3227 534.546 94.56 540.007 94.56Z" fill="black"/>
<path d="M585.046 108V47.328H601.046L601.686 53.088C604.161 51.2107 607.275 49.5893 611.03 48.224C614.87 46.7733 618.881 46.048 623.062 46.048C631.083 46.048 636.929 47.9253 640.598 51.68C644.267 55.4347 646.102 61.2373 646.102 69.088V108H628.822V69.984C628.822 65.888 627.969 62.9867 626.262 61.28C624.641 59.5733 621.569 58.72 617.046 58.72C614.401 58.72 611.713 59.3173 608.982 60.512C606.337 61.7067 604.118 63.2 602.326 64.992V108H585.046Z" fill="black"/>
<defs>
<linearGradient id="paint0_linear_1_23" x1="23.4211" y1="3.05398e-06" x2="29.7062" y2="146.047" gradientUnits="userSpaceOnUse">
<stop stop-color="#FE6C4B"/>
<stop offset="0.495192" stop-color="#FE2F5C"/>
<stop offset="1" stop-color="#FF1687"/>
</linearGradient>
<linearGradient id="paint1_linear_1_23" x1="23.4211" y1="3.05398e-06" x2="29.7062" y2="146.047" gradientUnits="userSpaceOnUse">
<stop stop-color="#FE6C4B"/>
<stop offset="0.495192" stop-color="#FE2F5C"/>
<stop offset="1" stop-color="#FF1687"/>
</linearGradient>
</defs>
</svg>
