<svg xmlns="http://www.w3.org/2000/svg" viewBox="0 0 800 620">
  <defs>
    <style>
      .label { font: 500 10px 'SF Mono', 'Hiragino Sans', 'Noto Sans JP', monospace; fill: #666; text-anchor: middle; letter-spacing: 0.5px; }
      .box-text { font: 600 13px 'SF Mono', 'Hiragino Sans', 'Noto Sans JP', monospace; fill: #1a1a1a; text-anchor: middle; }
      .box-text-sm { font: 600 11px 'SF Mono', 'Hiragino Sans', 'Noto Sans JP', monospace; fill: #1a1a1a; text-anchor: middle; }
      .title { font: 700 16px 'SF Mono', 'Hiragino Sans', 'Noto Sans JP', sans-serif; fill: #1a1a1a; text-anchor: middle; }
      .annotation { font: 400 9px 'SF Mono', monospace; fill: #666; text-anchor: middle; }
    </style>
    <marker id="arrow" markerWidth="10" markerHeight="7" refX="9" refY="3.5" orient="auto">
      <polygon points="0 0, 10 3.5, 0 7" fill="#666"/>
    </marker>
  </defs>

  <!-- Background -->
  <rect width="800" height="620" fill="#fff"/>

  <!-- Title -->
  <text x="400" y="35" class="title">Shannon Workflow Architecture</text>
  <text x="400" y="52" class="label">パターン駆動の認知オーケストレーション</text>

  <!-- Stage 1: Task Submitted -->
  <rect x="330" y="80" width="140" height="50" fill="#fef3c7" stroke="#1a1a1a" stroke-width="1.5" rx="2"/>
  <text x="400" y="103" class="box-text">Task Submitted</text>
  <text x="400" y="118" class="label">タスク提出</text>

  <!-- Arrow down -->
  <line x1="400" y1="130" x2="400" y2="155" stroke="#666" stroke-width="1.5" marker-end="url(#arrow)"/>

  <!-- Stage 2: Complexity Analysis (Decision Diamond) -->
  <path d="M 400 160 L 460 190 L 400 220 L 340 190 Z" fill="#dbeafe" stroke="#1a1a1a" stroke-width="1.5"/>
  <text x="400" y="190" class="box-text-sm">Complexity</text>
  <text x="400" y="203" class="box-text-sm">Analysis</text>

  <!-- Left branch: Simple -->
  <line x1="340" y1="190" x2="200" y2="190" stroke="#666" stroke-width="1.5" marker-end="url(#arrow)"/>
  <text x="270" y="185" class="annotation">Simple</text>

  <rect x="100" y="165" width="100" height="50" fill="#d1fae5" stroke="#1a1a1a" stroke-width="1.5" rx="2"/>
  <text x="150" y="188" class="box-text-sm">Simple</text>
  <text x="150" y="203" class="box-text-sm">Workflow</text>

  <!-- Right branches: Standard/Complex to OrchestratorRouter -->
  <line x1="460" y1="190" x2="555" y2="190" stroke="#666" stroke-width="1.5" marker-end="url(#arrow)"/>
  <text x="507" y="185" class="annotation">Standard/Complex</text>

  <rect x="560" y="165" width="130" height="50" fill="#67e8f9" stroke="#1a1a1a" stroke-width="1.5" rx="2"/>
  <text x="625" y="188" class="box-text-sm">Orchestrator</text>
  <text x="625" y="203" class="box-text-sm">Router</text>

  <!-- Arrow down from Router to Pattern Selection -->
  <line x1="625" y1="215" x2="625" y2="255" stroke="#666" stroke-width="1.5" marker-end="url(#arrow)"/>

  <!-- Stage 3: Pattern Selection (Decision Diamond) -->
  <path d="M 625 260 L 685 290 L 625 320 L 565 290 Z" fill="#fce7f3" stroke="#1a1a1a" stroke-width="1.5"/>
  <text x="625" y="290" class="box-text-sm">Pattern</text>
  <text x="625" y="303" class="box-text-sm">Selection</text>

  <!-- Four cognitive patterns -->
  <!-- CoT -->
  <line x1="565" y1="290" x2="485" y2="290" stroke="#666" stroke-width="1.5"/>
  <line x1="485" y1="290" x2="485" y2="360" stroke="#666" stroke-width="1.5" marker-end="url(#arrow)"/>
  <text x="515" y="285" class="annotation">Sequential</text>

  <rect x="420" y="365" width="130" height="50" fill="#a5f3fc" stroke="#1a1a1a" stroke-width="1.5" rx="2"/>
  <text x="485" y="388" class="box-text-sm">Chain-of-Thought</text>
  <text x="485" y="403" class="label">CoT 連鎖推論</text>

  <!-- ToT -->
  <line x1="625" y1="320" x2="625" y2="360" stroke="#666" stroke-width="1.5" marker-end="url(#arrow)"/>
  <text x="640" y="340" class="annotation">Exploratory</text>

  <rect x="560" y="365" width="130" height="50" fill="#99f6e4" stroke="#1a1a1a" stroke-width="1.5" rx="2"/>
  <text x="625" y="388" class="box-text-sm">Tree-of-Thoughts</text>
  <text x="625" y="403" class="label">ToT 樹形探索</text>

  <!-- ReAct -->
  <line x1="685" y1="290" x2="150" y2="290" stroke="#666" stroke-width="1.5"/>
  <line x1="150" y1="290" x2="150" y2="450" stroke="#666" stroke-width="1.5" marker-end="url(#arrow)"/>
  <text x="690" y="285" class="annotation">Interactive</text>

  <rect x="85" y="455" width="130" height="50" fill="#f9a8d4" stroke="#1a1a1a" stroke-width="1.5" rx="2"/>
  <text x="150" y="478" class="box-text-sm">ReAct</text>
  <text x="150" y="493" class="label">推論-行動ループ</text>

  <!-- Debate -->
  <line x1="685" y1="290" x2="765" y2="290" stroke="#666" stroke-width="1.5"/>
  <line x1="765" y1="290" x2="765" y2="450" stroke="#666" stroke-width="1.5" marker-end="url(#arrow)"/>
  <text x="700" y="305" class="annotation">Collaborative</text>

  <rect x="700" y="455" width="130" height="50" fill="#fde047" stroke="#1a1a1a" stroke-width="1.5" rx="2"/>
  <text x="765" y="478" class="box-text-sm">Debate</text>
  <text x="765" y="493" class="label">討論協作</text>

  <!-- Converge to Execute Agents -->
  <line x1="150" y1="505" x2="150" y2="540" stroke="#666" stroke-width="1.5"/>
  <line x1="150" y1="540" x2="385" y2="540" stroke="#666" stroke-width="1.5" marker-end="url(#arrow)"/>

  <line x1="485" y1="415" x2="485" y2="540" stroke="#666" stroke-width="1.5"/>
  <line x1="485" y1="540" x2="395" y2="540" stroke="#666" stroke-width="1.5" marker-end="url(#arrow)"/>

  <line x1="625" y1="415" x2="625" y2="540" stroke="#666" stroke-width="1.5"/>
  <line x1="625" y1="540" x2="415" y2="540" stroke="#666" stroke-width="1.5" marker-end="url(#arrow)"/>

  <line x1="765" y1="505" x2="765" y2="540" stroke="#666" stroke-width="1.5"/>
  <line x1="765" y1="540" x2="425" y2="540" stroke="#666" stroke-width="1.5" marker-end="url(#arrow)"/>

  <rect x="320" y="515" width="160" height="50" fill="#60a5fa" stroke="#1a1a1a" stroke-width="1.5" rx="2"/>
  <text x="400" y="538" class="box-text">Execute Agents</text>
  <text x="400" y="553" class="label">エージェント実行</text>

  <!-- Arrow down -->
  <line x1="400" y1="565" x2="400" y2="585" stroke="#666" stroke-width="1.5" marker-end="url(#arrow)"/>

  <!-- Synthesize Results -->
  <rect x="320" y="590" width="160" height="18" fill="#e5e7eb" stroke="#1a1a1a" stroke-width="1.5" rx="2"/>
  <text x="400" y="602" class="box-text-sm">Synthesize Results → Client</text>

  <!-- Legend boxes -->
  <rect x="30" y="560" width="70" height="14" fill="#dbeafe" stroke="#1a1a1a" stroke-width="1"/>
  <text x="105" y="567" class="annotation" text-anchor="start" dominant-baseline="middle">Decision / 決定</text>

  <rect x="30" y="580" width="70" height="14" fill="#67e8f9" stroke="#1a1a1a" stroke-width="1"/>
  <text x="105" y="587" class="annotation" text-anchor="start" dominant-baseline="middle">Orchestrator / 調整</text>

  <rect x="30" y="600" width="70" height="14" fill="#a5f3fc" stroke="#1a1a1a" stroke-width="1"/>
  <text x="105" y="607" class="annotation" text-anchor="start" dominant-baseline="middle">Cognitive Pattern / 認知パターン</text>
</svg>
